# xmcd
#
# Track frame offsets: 
#        150
#        13346
#        27575
#        43560
#        79767
#        106777
#        150194
#        171732
#        200541
#        219929
#        251373
#        272646
#        308363
#
# Disc length: 4758 seconds
#
# Revision: 1
# Processed by: cddbd v1.5.2PL0 Copyright (c) Steve Scherf et al.
# Submitted via: ExactAudioCopy v1.1
#
DISCID=a112940d
DTITLE=Stacy Mitchhart Band - Live From B.B. King's
DYEAR=2010
DGENRE=Blues
TTITLE0=Intro
TTITLE1=Call My Job
TTITLE2=King Bee
TTITLE3=Angel of Mercy
TTITLE4=100 degrees in the Shade
TTITLE5=Ain't Nobody For You Like Me
TTITLE6=I Drink Whiskey
TTITLE7=I Ain't Gonna Get Down On Myself (Cause I Believe In Me)
TTITLE8=Travelin' Blues
TTITLE9=The World Is A Ghetto
TTITLE10=Late At Night
TTITLE11=Grown Ass Man
TTITLE12=Sara Smile
EXTD=
EXTT0=
EXTT1=
EXTT2=
EXTT3=
EXTT4=
EXTT5=
EXTT6=
EXTT7=
EXTT8=
EXTT9=
EXTT10=
EXTT11=
EXTT12=
PLAYORDER=
